<svg xmlns="http://www.w3.org/2000/svg" width="1154.733154296875" height="192.77012634277344" viewBox="-496.02838134765625 35.87046813964844 1154.733154296875 192.77012634277344"><title>Neo4j Graph Visualization</title><desc>Created using Neo4j (http://www.neo4j.com/)</desc><g class="layer relationships"><g class="relationship" transform="translate(-217.55689590810164 72.57086693971115) rotate(539.7921999102335)"><path class="outline" fill="#A5ABB6" stroke="none" d="M 25 0.5 L 104.45532008532334 0.5 L 104.45532008532334 -0.5 L 25 -0.5 Z M 138.01782008532334 0.5 L 217.47314017064667 0.5 L 217.47314017064667 3.5 L 224.47314017064667 0 L 217.47314017064667 -3.5 L 217.47314017064667 -0.5 L 138.01782008532334 -0.5 Z"/><text text-anchor="middle" pointer-events="none" font-size="8px" fill="#000000" x="121.23657008532334" y="3" transform="rotate(180 121.23657008532334 0)" font-family="sans-serif">READS</text></g><g class="relationship" transform="translate(-217.55689590810164 72.57086693971115) rotate(360.29140743178687)"><path class="outline" fill="#A5ABB6" stroke="none" d="M 24.018736134675446,6.953439040707552 L 24.277555179777966,5.987513214418485 A 202.3785372252089 202.3785372252089 0 0 0 55.9300474650891,11.81920566156893 L 55.827630836563436,12.81394725324057 A 203.3785372252089 203.3785372252089 0 0 1 24.018736134675446,6.953439040707552 Z M 92.97431935586071,13.227756165252117 L 92.89408795757831,12.23097990012053 A 202.3785372252089 202.3785372252089 0 0 0 124.66863764571434,7.105855824939744 L 123.95692685804369,4.191500363656202 L 131.58741885332105,5.930923230588805 L 125.61758536260854,10.991663106651135 L 124.90587457493788,8.077307645367592 A 203.3785372252089 203.3785372252089 0 0 1 92.97431935586071,13.227756165252117"/><text text-anchor="middle" pointer-events="none" font-size="8px" fill="#000000" x="74.39707663697996" y="16.37080756229173" font-family="sans-serif">WRITES</text></g><g class="relationship" transform="translate(92.27748663534197 65.25954716898441) rotate(536.9869178770142)"><path class="outline" fill="#A5ABB6" stroke="none" d="M 25 0.5 L 56.80666159200689 0.5 L 56.80666159200689 -0.5 L 25 -0.5 Z M 90.36916159200689 0.5 L 122.17582318401378 0.5 L 122.17582318401378 3.5 L 129.17582318401378 0 L 122.17582318401378 -3.5 L 122.17582318401378 -0.5 L 90.36916159200689 -0.5 Z"/><text text-anchor="middle" pointer-events="none" font-size="8px" fill="#000000" x="73.58791159200689" y="3" transform="rotate(180 73.58791159200689 0)" font-family="sans-serif">READS</text></g><g class="relationship" transform="translate(92.27748663534197 65.25954716898441) rotate(359.87476493438044)"><path class="outline" fill="#A5ABB6" stroke="none" d="M 24.018736134675446,6.953439040707552 L 24.277555179777966,5.987513214418485 A 245.75218256488176 245.75218256488176 0 0 0 66.98154462334287,13.470866768018283 L 66.8964940835609,14.467243406485295 A 246.75218256488176 246.75218256488176 0 0 1 24.018736134675446,6.953439040707552 Z M 104.04425639303629,14.831492414357484 L 103.97876008892273,13.833639602492184 A 245.75218256488176 245.75218256488176 0 0 0 146.82127926031978,7.189104565882375 L 146.10179374150843,4.27665875724992 L 153.73690040026406,5.995712656761294 L 147.78059328540158,11.072365644058983 L 147.06110776659023,8.159919835426527 A 246.75218256488176 246.75218256488176 0 0 1 104.04425639303629,14.831492414357484"/><text text-anchor="middle" pointer-events="none" font-size="8px" fill="#000000" x="85.46841307170905" y="17.849478539426883" font-family="sans-serif">WRITES</text></g><g class="relationship" transform="translate(404.96910771398313 72.37594213599422) rotate(183.18957990840158)"><path class="outline" fill="#A5ABB6" stroke="none" d="M 25 0.5 L 47.16561404131387 0.5 L 47.16561404131387 -0.5 L 25 -0.5 Z M 80.72811404131387 0.5 L 102.89372808262775 0.5 L 102.89372808262775 3.5 L 109.89372808262775 0 L 102.89372808262775 -3.5 L 102.89372808262775 -0.5 L 80.72811404131387 -0.5 Z"/><text text-anchor="middle" pointer-events="none" font-size="8px" fill="#000000" x="63.94686404131387" y="3" transform="rotate(180 63.94686404131387 0)" font-family="sans-serif">READS</text></g><g class="relationship" transform="translate(404.96910771398313 72.37594213599422) rotate(359.07741424988035)"><path class="outline" fill="#A5ABB6" stroke="none" d="M 24.018736134675446,6.953439040707552 L 24.277555179777966,5.987513214418485 A 336.9814071458925 336.9814071458925 0 0 0 90.34458919779559,16.80549062634259 L 90.28182558072864,17.8035190469663 A 337.9814071458925 337.9814071458925 0 0 1 24.018736134675446,6.953439040707552 Z M 127.4263227435703,18.0941812920139 L 127.37918535313358,17.09529287661269 A 336.9814071458925 336.9814071458925 0 0 0 193.60742364809073,7.312549316181843 L 192.87641006058476,4.402975612890989 L 200.51826455368703,6.091779895883065 L 194.582108431432,11.191980920569648 L 193.85109484392603,8.282407217278795 A 337.9814071458925 337.9814071458925 0 0 1 127.4263227435703,18.0941812920139"/><text text-anchor="middle" pointer-events="none" font-size="8px" fill="#000000" x="108.8539904800323" y="20.959544128602545" font-family="sans-serif">WRITES</text></g><g class="relationship" transform="translate(-217.55689590810164 72.57086693971115) rotate(360.29140743178687)"><path class="outline" fill="#A5ABB6" stroke="none" d="M 24.018736134675446,-6.953439040707552 L 24.277555179777966,-5.987513214418485 A 202.3785372252089 202.3785372252089 0 0 1 57.6905812749202,-11.992693881155759 L 57.59686385844522,-12.988292718966079 A 203.3785372252089 203.3785372252089 0 0 0 24.018736134675446,-6.953439040707552 Z M 91.20164150447616,-13.362645239484038 L 91.13012625626331,-12.365205732910823 A 202.3785372252089 202.3785372252089 0 0 1 124.66863764571434,-7.105855824939744 L 123.95692685804369,-4.191500363656202 L 131.58741885332105,-5.930923230588805 L 125.61758536260854,-10.991663106651135 L 124.90587457493788,-8.077307645367592 A 203.3785372252089 203.3785372252089 0 0 0 91.20164150447616,-13.362645239484038"/><text text-anchor="middle" pointer-events="none" font-size="8px" fill="#000000" x="74.39707663697988" y="-10.37080756229173" font-family="sans-serif">READS</text></g><g class="relationship" transform="translate(-217.55689590810164 72.57086693971115) rotate(451.4350462792251)"><path class="outline" fill="#A5ABB6" stroke="none" d="M 25 0.5 L 43.494252362394775 0.5 L 43.494252362394775 -0.5 L 25 -0.5 Z M 76.61534611239477 0.5 L 95.10959847478955 0.5 L 95.10959847478955 3.5 L 102.10959847478955 0 L 95.10959847478955 -3.5 L 95.10959847478955 -0.5 L 76.61534611239477 -0.5 Z"/><text text-anchor="middle" pointer-events="none" font-size="8px" fill="#000000" x="60.054799237394775" y="3" transform="rotate(180 60.054799237394775 0)" font-family="sans-serif">EXECS</text></g><g class="relationship" transform="translate(92.27748663534197 65.25954716898441) rotate(449.83714925034724)"><path class="outline" fill="#A5ABB6" stroke="none" d="M 25 0.5 L 43.9492398646792 0.5 L 43.9492398646792 -0.5 L 25 -0.5 Z M 77.0703336146792 0.5 L 96.0195734793584 0.5 L 96.0195734793584 3.5 L 103.0195734793584 0 L 96.0195734793584 -3.5 L 96.0195734793584 -0.5 L 77.0703336146792 -0.5 Z"/><text text-anchor="middle" pointer-events="none" font-size="8px" fill="#000000" x="60.5097867396792" y="3" font-family="sans-serif">EXECS</text></g><g class="relationship" transform="translate(92.27748663534197 65.25954716898441) rotate(359.87476493438044)"><path class="outline" fill="#A5ABB6" stroke="none" d="M 24.018736134675446,-6.953439040707552 L 24.277555179777966,-5.987513214418485 A 245.75218256488176 245.75218256488176 0 0 1 68.74549528431787,-13.61504121996802 L 68.66762250646894,-14.612004524443222 A 246.75218256488176 246.75218256488176 0 0 0 24.018736134675446,-6.953439040707552 Z M 102.27062990032869,-14.94149576008661 L 102.21232148194838,-13.943197143265962 A 245.75218256488176 245.75218256488176 0 0 1 146.82127926031978,-7.189104565882375 L 146.10179374150843,-4.27665875724992 L 153.73690040026406,-5.995712656761294 L 147.78059328540158,-11.072365644058983 L 147.06110776659023,-8.159919835426527 A 246.75218256488176 246.75218256488176 0 0 0 102.27062990032869,-14.94149576008661"/><text text-anchor="middle" pointer-events="none" font-size="8px" fill="#000000" x="85.46841307170895" y="-11.849478539426883" font-family="sans-serif">READS</text></g><g class="relationship" transform="translate(404.96910771398313 72.37594213599422) rotate(452.101586944677)"><path class="outline" fill="#A5ABB6" stroke="none" d="M 25 0.5 L 41.23056563706033 0.5 L 41.23056563706033 -0.5 L 25 -0.5 Z M 74.35165938706032 0.5 L 90.58222502412066 0.5 L 90.58222502412066 3.5 L 97.58222502412066 0 L 90.58222502412066 -3.5 L 90.58222502412066 -0.5 L 74.35165938706032 -0.5 Z"/><text text-anchor="middle" pointer-events="none" font-size="8px" fill="#000000" x="57.79111251206033" y="3" transform="rotate(180 57.79111251206033 0)" font-family="sans-serif">EXECS</text></g><g class="relationship" transform="translate(404.96910771398313 72.37594213599422) rotate(359.07741424988035)"><path class="outline" fill="#A5ABB6" stroke="none" d="M 24.018736134675446,-6.953439040707552 L 24.277555179777966,-5.987513214418485 A 336.9814071458925 336.9814071458925 0 0 1 92.11219183345199,-16.91198901024535 L 92.0546736174611,-17.910333467248677 A 337.9814071458925 337.9814071458925 0 0 0 24.018736134675446,-6.953439040707552 Z M 125.6520202275036,-18.173238633268397 L 125.61013254157297,-17.17411630754077 A 336.9814071458925 336.9814071458925 0 0 1 193.60742364809073,-7.312549316181843 L 192.87641006058476,-4.402975612890989 L 200.51826455368703,-6.091779895883065 L 194.582108431432,-11.191980920569648 L 193.85109484392603,-8.282407217278795 A 337.9814071458925 337.9814071458925 0 0 0 125.6520202275036,-18.173238633268397"/><text text-anchor="middle" pointer-events="none" font-size="8px" fill="#000000" x="108.85399048003224" y="-14.959544128602545" font-family="sans-serif">READS</text></g></g><g class="layer nodes"><g class="node" transform="translate(-220.74018597284896,199.6405985392778)"><circle class="outline" cx="0" cy="0" r="25" fill="#57C7E3" stroke="#23b3d7" stroke-width="2px"/><text text-anchor="middle" pointer-events="none" font-family="sans-serif" dy="1.5625" font-size="25" fill="#FFFFFF"/><text text-anchor="middle" pointer-events="none" y="5" font-size="10px" fill="#FFFFFF" font-family="sans-serif"> /usr/lib/g…</text></g><g class="node" transform="translate(92.64135384542428,193.2786035414256)"><circle class="outline" cx="0" cy="0" r="25" fill="#57C7E3" stroke="#23b3d7" stroke-width="2px"/><text text-anchor="middle" pointer-events="none" font-family="sans-serif" dy="1.5625" font-size="25" fill="#FFFFFF"/><text text-anchor="middle" pointer-events="none" y="5" font-size="10px" fill="#FFFFFF" font-family="sans-serif"> /usr/bin/as</text></g><g class="node" transform="translate(400.4738474394617,194.87571571508482)"><circle class="outline" cx="0" cy="0" r="25" fill="#57C7E3" stroke="#23b3d7" stroke-width="2px"/><text text-anchor="middle" pointer-events="none" font-family="sans-serif" dy="1.5625" font-size="25" fill="#FFFFFF"/><text text-anchor="middle" pointer-events="none" y="5" font-size="10px" fill="#FFFFFF" font-family="sans-serif"> /usr/bin/ld</text></g><g class="node" transform="translate(-467.02839533968233,73.47565308126829)"><circle class="outline" cx="0" cy="0" r="25" fill="#57C7E3" stroke="#23b3d7" stroke-width="2px"/><text text-anchor="middle" pointer-events="none" font-family="sans-serif" dy="1.5625" font-size="25" fill="#FFFFFF"/><text text-anchor="middle" pointer-events="none" y="5" font-size="10px" fill="#FFFFFF" font-family="sans-serif"> hello.c</text></g><g class="node" transform="translate(629.704681980943,68.75690140612222)"><circle class="outline" cx="0" cy="0" r="25" fill="#57C7E3" stroke="#23b3d7" stroke-width="2px"/><text text-anchor="middle" pointer-events="none" font-family="sans-serif" dy="1.5625" font-size="25" fill="#FFFFFF"/><text text-anchor="middle" pointer-events="none" y="5" font-size="10px" fill="#FFFFFF" font-family="sans-serif"> hello.exe</text></g><g class="node" transform="translate(-217.55689590810164,72.57086693971115)"><circle class="outline" cx="0" cy="0" r="25" fill="#F79767" stroke="#f36924" stroke-width="2px"/><text text-anchor="middle" pointer-events="none" font-family="sans-serif" dy="1.5625" font-size="25" fill="#FFFFFF"/><text text-anchor="middle" pointer-events="none" y="5" font-size="10px" fill="#FFFFFF" font-family="sans-serif"> 1497018</text></g><g class="node" transform="translate(-61.68519757846748,73.36364021799821)"><circle class="outline" cx="0" cy="0" r="25" fill="#57C7E3" stroke="#23b3d7" stroke-width="2px"/><text text-anchor="middle" pointer-events="none" font-family="sans-serif" dy="1.5625" font-size="25" fill="#FFFFFF"/><text text-anchor="middle" pointer-events="none" y="5" font-size="10px" fill="#FFFFFF" font-family="sans-serif"> /tmp/ccS…</text></g><g class="node" transform="translate(92.27748663534197,65.25954716898441)"><circle class="outline" cx="0" cy="0" r="25" fill="#F79767" stroke="#f36924" stroke-width="2px"/><text text-anchor="middle" pointer-events="none" font-family="sans-serif" dy="1.5625" font-size="25" fill="#FFFFFF"/><text text-anchor="middle" pointer-events="none" y="5" font-size="10px" fill="#FFFFFF" font-family="sans-serif"> 1497020</text></g><g class="node" transform="translate(270.28434355367324,64.87046552810197)"><circle class="outline" cx="0" cy="0" r="25" fill="#57C7E3" stroke="#23b3d7" stroke-width="2px"/><text text-anchor="middle" pointer-events="none" font-family="sans-serif" dy="1.5625" font-size="25" fill="#FFFFFF"/><text text-anchor="middle" pointer-events="none" y="5" font-size="10px" fill="#FFFFFF" font-family="sans-serif"> /tmp/ccZ…</text></g><g class="node" transform="translate(404.96910771398313,72.37594213599422)"><circle class="outline" cx="0" cy="0" r="25" fill="#F79767" stroke="#f36924" stroke-width="2px"/><text text-anchor="middle" pointer-events="none" font-family="sans-serif" dy="1.5625" font-size="25" fill="#FFFFFF"/><text text-anchor="middle" pointer-events="none" y="5" font-size="10px" fill="#FFFFFF" font-family="sans-serif"> 1497024</text></g></g></svg>