<svg xmlns="http://www.w3.org/2000/svg" width="971.7219848632812" height="251.97122192382812" viewBox="-376.8707275390625 45.925392150878906 971.7219848632812 251.97122192382812"><title>Neo4j Graph Visualization</title><desc>Created using Neo4j (http://www.neo4j.com/)</desc><g class="layer relationships"><g class="relationship" transform="translate(-163.6894973036815 123.93040153913854) rotate(539.3975933566085)"><path class="outline" fill="#A5ABB6" stroke="none" d="M 25 0.5 L 64.31424935629653 0.5 L 64.31424935629653 -0.5 L 25 -0.5 Z M 97.87674935629653 0.5 L 137.19099871259306 0.5 L 137.19099871259306 3.5 L 144.19099871259306 0 L 137.19099871259306 -3.5 L 137.19099871259306 -0.5 L 97.87674935629653 -0.5 Z"/><text text-anchor="middle" pointer-events="none" font-size="8px" fill="#000000" x="81.09549935629653" y="3" transform="rotate(180 81.09549935629653 0)" font-family="sans-serif">READS</text></g><g class="relationship" transform="translate(-163.6894973036815 123.93040153913854) rotate(344.0901641842895)"><path class="outline" fill="#A5ABB6" stroke="none" d="M 24.018736134675446,6.953439040707552 L 24.277555179777966,5.987513214418485 A 180.65824029996375 180.65824029996375 0 0 0 48.416809381114845,10.721772293784056 L 48.291608676151455,11.713903728361487 A 181.65824029996375 181.65824029996375 0 0 1 24.018736134675446,6.953439040707552 Z M 85.42846235942781,12.572199435459936 L 85.34923053426235,11.575343218204438 A 180.65824029996375 180.65824029996375 0 0 0 109.68142720621273,7.961341620966669 L 109.03967271910058,5.0307868649057275 L 116.62634738487363,6.952340277048443 L 110.53709985569562,11.868747962381256 L 109.89534536858346,8.938193206320316 A 181.65824029996375 181.65824029996375 0 0 1 85.42846235942781,12.572199435459936"/><text text-anchor="middle" pointer-events="none" font-size="8px" fill="#000000" x="66.84959184154258" y="15.594929965426928" font-family="sans-serif">WRITES</text></g><g class="relationship" transform="translate(119.25177969640825 89.40744330404246) rotate(182.5107994330624)"><path class="outline" fill="#A5ABB6" stroke="none" d="M 25 0.5 L 46.16155086522218 0.5 L 46.16155086522218 -0.5 L 25 -0.5 Z M 79.72405086522218 0.5 L 100.88560173044436 0.5 L 100.88560173044436 3.5 L 107.88560173044436 0 L 100.88560173044436 -3.5 L 100.88560173044436 -0.5 L 79.72405086522218 -0.5 Z"/><text text-anchor="middle" pointer-events="none" font-size="8px" fill="#000000" x="62.94280086522218" y="3" transform="rotate(180 62.94280086522218 0)" font-family="sans-serif">READS</text></g><g class="relationship" transform="translate(119.25177969640825 89.40744330404246) rotate(356.8836877607921)"><path class="outline" fill="#A5ABB6" stroke="none" d="M 24.018736134675446,6.953439040707552 L 24.277555179777966,5.987513214418485 A 140.2453894961488 140.2453894961488 0 0 0 38.48512723860896,9.015542352168012 L 38.3276132853164,10.003059113807097 A 141.2453894961488 141.2453894961488 0 0 1 24.018736134675446,6.953439040707552 Z M 75.4481590745125,10.981080914612562 L 75.34286412535796,9.986639878812781 A 140.2453894961488 140.2453894961488 0 0 0 89.69017420010485,7.710951436824206 L 89.06738493047894,4.7763077573225825 L 96.64147433054629,6.746883754280689 L 90.52055989293939,11.623809676159704 L 89.89777062331348,8.68916599665808 A 141.2453894961488 141.2453894961488 0 0 1 75.4481590745125,10.981080914612562"/><text text-anchor="middle" pointer-events="none" font-size="8px" fill="#000000" x="56.86877489566678" y="14.217433499381372" font-family="sans-serif">WRITES</text></g><g class="relationship" transform="translate(380.6579954292619 130.87032853509413) rotate(199.99151523726073)"><path class="outline" fill="#A5ABB6" stroke="none" d="M 25 0.5 L 46.81932007818206 0.5 L 46.81932007818206 -0.5 L 25 -0.5 Z M 80.38182007818206 0.5 L 102.20114015636412 0.5 L 102.20114015636412 3.5 L 109.20114015636412 0 L 102.20114015636412 -3.5 L 102.20114015636412 -0.5 L 80.38182007818206 -0.5 Z"/><text text-anchor="middle" pointer-events="none" font-size="8px" fill="#000000" x="63.60057007818206" y="3" transform="rotate(180 63.60057007818206 0)" font-family="sans-serif">READS</text></g><g class="relationship" transform="translate(380.6579954292619 130.87032853509413) rotate(358.10034017452836)"><path class="outline" fill="#A5ABB6" stroke="none" d="M 24.018736134675446,6.953439040707552 L 24.277555179777966,5.987513214418485 A 239.50218168634444 239.50218168634444 0 0 0 63.09979775480295,13.025396520320953 L 63.00307427935944,14.020707812981783 A 240.50218168634444 240.50218168634444 0 0 1 24.018736134675446,6.953439040707552 Z M 100.14561764293839,14.747473371594708 L 100.08790366961055,13.749140212132062 A 239.50218168634444 239.50218168634444 0 0 0 139.15574442111347,8.23532674078821 L 138.49323943383231,5.309393190307675 L 146.09334020344824,7.177137362212311 L 140.03908440415498,12.136571474762254 L 139.37657941687382,9.21063792428172 A 240.50218168634444 240.50218168634444 0 0 1 100.14561764293839,14.747473371594708"/><text text-anchor="middle" pointer-events="none" font-size="8px" fill="#000000" x="81.57007390220312" y="17.602421156753678" font-family="sans-serif">WRITES</text></g><g class="relationship" transform="translate(-163.6894973036815 123.93040153913854) rotate(344.0901641842895)"><path class="outline" fill="#A5ABB6" stroke="none" d="M 24.018736134675446,-6.953439040707552 L 24.277555179777966,-5.987513214418485 A 180.65824029996375 180.65824029996375 0 0 1 50.17249203589923,-10.934603222446611 L 50.05700958487139,-11.927912742940919 A 181.65824029996375 181.65824029996375 0 0 0 24.018736134675446,-6.953439040707552 Z M 83.6550594816742,-12.704420689447204 L 83.58558996002344,-11.706836615014566 A 180.65824029996375 180.65824029996375 0 0 1 109.68142720621273,-7.961341620966669 L 109.03967271910058,-5.0307868649057275 L 116.62634738487363,-6.952340277048443 L 110.53709985569562,-11.868747962381256 L 109.89534536858346,-8.938193206320316 A 181.65824029996375 181.65824029996375 0 0 0 83.6550594816742,-12.704420689447204"/><text text-anchor="middle" pointer-events="none" font-size="8px" fill="#000000" x="66.84959184154252" y="-9.594929965426928" font-family="sans-serif">READS</text></g><g class="relationship" transform="translate(-163.6894973036815 123.93040153913854) rotate(448.86021190439556)"><path class="outline" fill="#A5ABB6" stroke="none" d="M 25 0.5 L 44.93616350642114 0.5 L 44.93616350642114 -0.5 L 25 -0.5 Z M 78.05725725642114 0.5 L 97.99342076284228 0.5 L 97.99342076284228 3.5 L 104.99342076284228 0 L 97.99342076284228 -3.5 L 97.99342076284228 -0.5 L 78.05725725642114 -0.5 Z"/><text text-anchor="middle" pointer-events="none" font-size="8px" fill="#000000" x="61.49671038142114" y="3" font-family="sans-serif">EXECS</text></g><g class="relationship" transform="translate(119.25177969640825 89.40744330404246) rotate(459.1384281903497)"><path class="outline" fill="#A5ABB6" stroke="none" d="M 25 0.5 L 31.79155886171835 0.5 L 31.79155886171835 -0.5 L 25 -0.5 Z M 64.91265261171836 0.5 L 71.7042114734367 0.5 L 71.7042114734367 3.5 L 78.7042114734367 0 L 71.7042114734367 -3.5 L 71.7042114734367 -0.5 L 64.91265261171836 -0.5 Z"/><text text-anchor="middle" pointer-events="none" font-size="8px" fill="#000000" x="48.35210573671835" y="3" transform="rotate(180 48.35210573671835 0)" font-family="sans-serif">EXECS</text></g><g class="relationship" transform="translate(119.25177969640825 89.40744330404246) rotate(356.8836877607921)"><path class="outline" fill="#A5ABB6" stroke="none" d="M 24.018736134675446,-6.953439040707552 L 24.277555179777966,-5.987513214418485 A 140.2453894961488 140.2453894961488 0 0 1 40.23191242251649,-9.282889647907353 L 40.08685367498993,-10.272312691790006 A 141.2453894961488 141.2453894961488 0 0 0 24.018736134675446,-6.953439040707552 Z M 73.67718112433892,-11.157323185122237 L 73.58442448143629,-10.161634375705631 A 140.2453894961488 140.2453894961488 0 0 1 89.69017420010485,-7.710951436824206 L 89.06738493047894,-4.7763077573225825 L 96.64147433054629,-6.746883754280689 L 90.52055989293939,-11.623809676159704 L 89.89777062331348,-8.68916599665808 A 141.2453894961488 141.2453894961488 0 0 0 73.67718112433892,-11.157323185122237"/><text text-anchor="middle" pointer-events="none" font-size="8px" fill="#000000" x="56.86877489566675" y="-8.217433499381372" font-family="sans-serif">READS</text></g><g class="relationship" transform="translate(380.6579954292619 130.87032853509413) rotate(358.10034017452836)"><path class="outline" fill="#A5ABB6" stroke="none" d="M 24.018736134675446,-6.953439040707552 L 24.277555179777966,-5.987513214418485 A 239.50218168634444 239.50218168634444 0 0 1 64.86185921867299,-13.190062789403726 L 64.77249292658149,-14.186061617634863 A 240.50218168634444 240.50218168634444 0 0 0 24.018736134675446,-6.953439040707552 Z M 98.37108491706435,-14.843482926605219 L 98.32074939125593,-13.844750562634971 A 239.50218168634444 239.50218168634444 0 0 1 139.15574442111347,-8.23532674078821 L 138.49323943383231,-5.309393190307675 L 146.09334020344824,-7.177137362212311 L 140.03908440415498,-12.136571474762254 L 139.37657941687382,-9.21063792428172 A 240.50218168634444 240.50218168634444 0 0 0 98.37108491706435,-14.843482926605219"/><text text-anchor="middle" pointer-events="none" font-size="8px" fill="#000000" x="81.57007390220299" y="-11.602421156753678" font-family="sans-serif">READS</text></g><g class="relationship" transform="translate(380.6579954292619 130.87032853509413) rotate(455.577028578014)"><path class="outline" fill="#A5ABB6" stroke="none" d="M 25 0.5 L 31.688043705568063 0.5 L 31.688043705568063 -0.5 L 25 -0.5 Z M 64.80913745556806 0.5 L 71.49718116113613 0.5 L 71.49718116113613 3.5 L 78.49718116113613 0 L 71.49718116113613 -3.5 L 71.49718116113613 -0.5 L 64.80913745556806 -0.5 Z"/><text text-anchor="middle" pointer-events="none" font-size="8px" fill="#000000" x="48.24859058056806" y="3" transform="rotate(180 48.24859058056806 0)" font-family="sans-serif">EXECS</text></g></g><g class="layer nodes"><g class="node" transform="translate(-160.95451351219342,261.39661781327726)"><circle class="outline" cx="0" cy="0" r="32.5" fill="#57C7E3" stroke="#23b3d7" stroke-width="2px"/><text text-anchor="middle" pointer-events="none" font-family="sans-serif" dy="2.03125" font-size="32.5" fill="#FFFFFF"/><text text-anchor="middle" pointer-events="none" y="5" font-size="10px" fill="#FFFFFF" font-family="sans-serif"> cc1</text></g><g class="node" transform="translate(101.5902947434315,199.20019624650496)"><circle class="outline" cx="0" cy="0" r="32.5" fill="#57C7E3" stroke="#23b3d7" stroke-width="2px"/><text text-anchor="middle" pointer-events="none" font-family="sans-serif" dy="2.03125" font-size="32.5" fill="#FFFFFF"/><text text-anchor="middle" pointer-events="none" y="5" font-size="10px" fill="#FFFFFF" font-family="sans-serif"> as</text></g><g class="node" transform="translate(369.8708588677358,241.3420982797717)"><circle class="outline" cx="0" cy="0" r="32.5" fill="#57C7E3" stroke="#23b3d7" stroke-width="2px"/><text text-anchor="middle" pointer-events="none" font-family="sans-serif" dy="2.03125" font-size="32.5" fill="#FFFFFF"/><text text-anchor="middle" pointer-events="none" y="5" font-size="10px" fill="#FFFFFF" font-family="sans-serif"> ld</text></g><g class="node" transform="translate(-340.37073006238006,125.78809282677085)"><circle class="outline" cx="0" cy="0" r="32.5" fill="#57C7E3" stroke="#23b3d7" stroke-width="2px"/><text text-anchor="middle" pointer-events="none" font-family="sans-serif" dy="2.03125" font-size="32.5" fill="#FFFFFF"/><text text-anchor="middle" pointer-events="none" y="5" font-size="10px" fill="#FFFFFF" font-family="sans-serif"> st.c</text></g><g class="node" transform="translate(558.3512374588465,124.97669274449049)"><circle class="outline" cx="0" cy="0" r="32.5" fill="#57C7E3" stroke="#23b3d7" stroke-width="2px"/><text text-anchor="middle" pointer-events="none" font-family="sans-serif" dy="2.03125" font-size="32.5" fill="#FFFFFF"/><text text-anchor="middle" pointer-events="none" y="5" font-size="10px" fill="#FFFFFF" font-family="sans-serif"> st</text></g><g class="node" transform="translate(-163.6894973036815,123.93040153913854)"><circle class="outline" cx="0" cy="0" r="25" fill="#F79767" stroke="#f36924" stroke-width="2px"/><text text-anchor="middle" pointer-events="none" font-family="sans-serif" dy="1.5625" font-size="25" fill="#FFFFFF"/><text text-anchor="middle" pointer-events="none" y="5" font-size="10px" fill="#FFFFFF" font-family="sans-serif"> 1500493</text></g><g class="node" transform="translate(-20.999049358379786,83.2574739818772)"><circle class="outline" cx="0" cy="0" r="32.5" fill="#57C7E3" stroke="#23b3d7" stroke-width="2px"/><text text-anchor="middle" pointer-events="none" font-family="sans-serif" dy="2.03125" font-size="32.5" fill="#FFFFFF"/><text text-anchor="middle" pointer-events="none" y="5" font-size="10px" fill="#FFFFFF" font-family="sans-serif"> cc99ifya.s</text></g><g class="node" transform="translate(119.25177969640825,89.40744330404246)"><circle class="outline" cx="0" cy="0" r="25" fill="#F79767" stroke="#f36924" stroke-width="2px"/><text text-anchor="middle" pointer-events="none" font-family="sans-serif" dy="1.5625" font-size="25" fill="#FFFFFF"/><text text-anchor="middle" pointer-events="none" y="5" font-size="10px" fill="#FFFFFF" font-family="sans-serif"> 1500494</text></g><g class="node" transform="translate(247.49530414143095,82.42540340773559)"><circle class="outline" cx="0" cy="0" r="32.5" fill="#57C7E3" stroke="#23b3d7" stroke-width="2px"/><text text-anchor="middle" pointer-events="none" font-family="sans-serif" dy="2.03125" font-size="32.5" fill="#FFFFFF"/><text text-anchor="middle" pointer-events="none" y="5" font-size="10px" fill="#FFFFFF" font-family="sans-serif"> st.o</text></g><g class="node" transform="translate(380.6579954292619,130.87032853509413)"><circle class="outline" cx="0" cy="0" r="25" fill="#F79767" stroke="#f36924" stroke-width="2px"/><text text-anchor="middle" pointer-events="none" font-family="sans-serif" dy="1.5625" font-size="25" fill="#FFFFFF"/><text text-anchor="middle" pointer-events="none" y="5" font-size="10px" fill="#FFFFFF" font-family="sans-serif"> 1500506</text></g></g></svg>